<mxfile host="app.diagrams.net" modified="2023-05-23T03:38:39.502Z" agent="Mozilla/5.0 (Windows NT 10.0; Win64; x64) AppleWebKit/537.36 (KHTML, like Gecko) Chrome/113.0.0.0 Safari/537.36" etag="k2jHKkaWRZ_Gu4w5h7Zt" version="21.3.2" type="github">
  <diagram name="Page-1" id="F34xvEOVVVP0ipVrpbaf">
    <mxGraphModel dx="2100" dy="1238" grid="0" gridSize="10" guides="1" tooltips="1" connect="1" arrows="1" fold="1" page="1" pageScale="1" pageWidth="1600" pageHeight="900" background="#000000" math="0" shadow="0">
      <root>
        <mxCell id="0" />
        <mxCell id="1" parent="0" />
        <mxCell id="POBGn_9Outm2-H0OH8fw-16" style="edgeStyle=orthogonalEdgeStyle;rounded=0;orthogonalLoop=1;jettySize=auto;html=1;exitX=0;exitY=0.5;exitDx=0;exitDy=0;" parent="1" source="POBGn_9Outm2-H0OH8fw-1" edge="1">
          <mxGeometry relative="1" as="geometry">
            <mxPoint x="25.28571428571422" y="451.8571428571429" as="targetPoint" />
          </mxGeometry>
        </mxCell>
        <mxCell id="POBGn_9Outm2-H0OH8fw-1" value="" style="rounded=1;whiteSpace=wrap;html=1;strokeColor=#00FF00;fillColor=none;perimeterSpacing=0;arcSize=2;" parent="1" vertex="1">
          <mxGeometry x="32" y="35" width="1529" height="833" as="geometry" />
        </mxCell>
        <mxCell id="POBGn_9Outm2-H0OH8fw-10" style="edgeStyle=orthogonalEdgeStyle;rounded=0;orthogonalLoop=1;jettySize=auto;html=1;exitX=0.5;exitY=0.5;exitDx=0;exitDy=0;exitPerimeter=0;" parent="1" edge="1">
          <mxGeometry relative="1" as="geometry">
            <mxPoint x="549.5" y="451.5" as="sourcePoint" />
            <mxPoint x="1090" y="451.5" as="targetPoint" />
          </mxGeometry>
        </mxCell>
        <mxCell id="POBGn_9Outm2-H0OH8fw-37" value="&lt;h1 style=&quot;border-color: var(--border-color); text-align: left;&quot;&gt;&lt;font style=&quot;font-weight: normal; font-size: 24px;&quot; color=&quot;#00ff00&quot;&gt;&lt;font style=&quot;font-size: 24px;&quot;&gt;orem ipsum dolor sit amet, consectetur adi&amp;nbsp;&lt;/font&gt;&lt;/font&gt;&lt;/h1&gt;&lt;h1 style=&quot;border-color: var(--border-color); text-align: left;&quot;&gt;&lt;font style=&quot;font-weight: normal; font-size: 24px;&quot; color=&quot;#00ff00&quot;&gt;&lt;br&gt;&lt;/font&gt;&lt;/h1&gt;&lt;h1 style=&quot;border-color: var(--border-color); text-align: left;&quot;&gt;&lt;font style=&quot;font-weight: normal; font-size: 24px;&quot; color=&quot;#00ff00&quot;&gt;&quot;Lorem ipsum dolor sit amet, consectetur adipiscing elit, sed do eiusmod temp magna aliqua. Ut enim ad minim veniam, quis nostrud&quot;&lt;/font&gt;&lt;/h1&gt;&lt;h1 style=&quot;border-color: var(--border-color); text-align: left;&quot;&gt;&lt;font style=&quot;font-weight: normal; font-size: 24px;&quot; color=&quot;#00ff00&quot;&gt;&lt;br&gt;&lt;/font&gt;&lt;/h1&gt;&lt;h1 style=&quot;border-color: var(--border-color); text-align: left;&quot;&gt;&lt;font style=&quot;font-weight: normal; font-size: 24px;&quot; color=&quot;#00ff00&quot;&gt;exercitation ullamco laboris nisi ut aliquip ex ea commodo consequat. Duis aute irure dolor in reprehenderit in voluptate velit esse cillum dolore eu fugiat&amp;nbsp;&lt;/font&gt;&lt;/h1&gt;&lt;h1 style=&quot;border-color: var(--border-color); text-align: left;&quot;&gt;&lt;font style=&quot;font-weight: normal; font-size: 24px;&quot; color=&quot;#00ff00&quot;&gt;&lt;br&gt;&lt;/font&gt;&lt;/h1&gt;&lt;h1 style=&quot;border-color: var(--border-color); text-align: left;&quot;&gt;&lt;font style=&quot;font-weight: normal; font-size: 24px;&quot; color=&quot;#00ff00&quot;&gt;nulla pariatur. Excepteur sint occaecat cupidatat non proident, sunt in culpa qui officia deserunt mollit anim id est laborum.&lt;/font&gt;&lt;/h1&gt;&lt;div style=&quot;font-size: 24px;&quot;&gt;&lt;h1 style=&quot;border-color: var(--border-color); text-align: left;&quot;&gt;&lt;font style=&quot;border-color: var(--border-color); font-weight: normal; font-size: 24px;&quot; color=&quot;#00ff00&quot;&gt;&lt;br&gt;&lt;/font&gt;&lt;/h1&gt;&lt;h1 style=&quot;border-color: var(--border-color); text-align: left;&quot;&gt;&lt;font style=&quot;border-color: var(--border-color); font-weight: normal; font-size: 24px;&quot; color=&quot;#00ff00&quot;&gt;sint occaecat cupidatat non proident, sunt in culpa qui officia deseru&lt;/font&gt;&lt;/h1&gt;&lt;/div&gt;&lt;div style=&quot;text-align: right; font-size: 24px;&quot;&gt;&lt;br&gt;&lt;/div&gt;" style="text;html=1;strokeColor=none;fillColor=none;align=center;verticalAlign=middle;whiteSpace=wrap;rounded=0;fontFamily=Courier New;" parent="1" vertex="1">
          <mxGeometry x="57" y="51" width="961" height="763" as="geometry" />
        </mxCell>
        <mxCell id="ME_m3xczHFnfKEoLb6mG-1" value="&lt;div style=&quot;font-size: 24px;&quot;&gt;&lt;font style=&quot;border-color: var(--border-color); font-weight: normal; font-size: 24px;&quot; color=&quot;#00ff00&quot;&gt;&lt;br&gt;&lt;/font&gt;&lt;/div&gt;&lt;div style=&quot;text-align: right; font-size: 24px;&quot;&gt;&lt;font style=&quot;border-color: var(--border-color); font-weight: normal; font-size: 24px;&quot; color=&quot;#00ff00&quot;&gt;Are you up for the challenge?&lt;/font&gt;&lt;/div&gt;&lt;div style=&quot;text-align: right; font-size: 24px;&quot;&gt;&lt;br&gt;&lt;/div&gt;" style="text;html=1;strokeColor=none;fillColor=none;align=center;verticalAlign=middle;whiteSpace=wrap;rounded=0;fontFamily=Courier New;" vertex="1" parent="1">
          <mxGeometry x="1004" y="725" width="522" height="93" as="geometry" />
        </mxCell>
      </root>
    </mxGraphModel>
  </diagram>
</mxfile>
